<?xml version="1.0" encoding="UTF-8" standalone="no"?>
<svg
   viewBox="0 0 48 48"
   version="1.1"
   id="svg1"
   sodipodi:docname="github.svg"
   width="48"
   height="48"
   inkscape:version="1.3 (0e150ed6c4, 2023-07-21)"
   xmlns:inkscape="http://www.inkscape.org/namespaces/inkscape"
   xmlns:sodipodi="http://sodipodi.sourceforge.net/DTD/sodipodi-0.dtd"
   xmlns="http://www.w3.org/2000/svg"
   xmlns:svg="http://www.w3.org/2000/svg">
  <defs
     id="defs1" />
  <sodipodi:namedview
     id="namedview1"
     pagecolor="#505050"
     bordercolor="#eeeeee"
     borderopacity="1"
     inkscape:showpageshadow="0"
     inkscape:pageopacity="0"
     inkscape:pagecheckerboard="0"
     inkscape:deskcolor="#505050"
     inkscape:zoom="1.5878906"
     inkscape:cx="248.12792"
     inkscape:cy="256"
     inkscape:window-width="1920"
     inkscape:window-height="1009"
     inkscape:window-x="-8"
     inkscape:window-y="-8"
     inkscape:window-maximized="1"
     inkscape:current-layer="svg1" />
  <!--!Font Awesome Free 6.5.2 by @fontawesome - https://fontawesome.com License - https://fontawesome.com/license/free Copyright 2024 Fonticons, Inc.-->
  <path
     d="m 16.054839,38.649531 c 0,0.19851 -0.222581,0.35731 -0.503226,0.35731 -0.319355,0.0298 -0.541936,-0.12903 -0.541936,-0.35731 0,-0.19851 0.222581,-0.35732 0.503226,-0.35732 0.290323,-0.0298 0.541936,0.12903 0.541936,0.35732 z m -3.009678,-0.44664 c -0.06774,0.1985 0.125807,0.42679 0.416129,0.48634 0.251613,0.0992 0.541936,0 0.6,-0.19851 0.05807,-0.19851 -0.125806,-0.42679 -0.416129,-0.51612 -0.251613,-0.0695 -0.532258,0.0298 -0.6,0.22829 z m 4.27742,-0.16874 c -0.280646,0.0695 -0.474194,0.25806 -0.445162,0.48635 0.02903,0.19851 0.280646,0.32754 0.570968,0.25806 0.280645,-0.0695 0.474194,-0.25806 0.445161,-0.45657 -0.02903,-0.18858 -0.290322,-0.31761 -0.570967,-0.28784 z M 23.69032,7.2920821e-7 C 10.267742,7.2920821e-7 0,10.451451 0,24.217991 c 0,11.00727 6.754839,20.42648 16.403226,23.74157 1.238709,0.22828 1.674193,-0.55582 1.674193,-1.20097 0,-0.61538 -0.02903,-4.00987 -0.02903,-6.0942 0,0 -6.774193,1.48881 -8.196774,-2.95777 0,0 -1.103226,-2.8883 -2.690323,-3.6327 0,0 -2.216129,-1.55829 0.154839,-1.52852 0,0 2.409677,0.19851 3.735484,2.56076 2.119355,3.83121 5.670968,2.72949 7.054839,2.07441 0.22258,-1.58807 0.851613,-2.68979 1.548387,-3.34486 -5.409678,-0.61538 -10.867742,-1.41933 -10.867742,-10.96758 0,-2.72948 0.735484,-4.09919 2.283871,-5.84606 -0.251613,-0.64515 -1.074194,-3.30516 0.251613,-6.73935 2.02258,-0.6451503 6.677419,2.67986 6.677419,2.67986 1.935484,-0.55582 4.016128,-0.84366 6.077418,-0.84366 2.06129,0 4.14194,0.28784 6.07742,0.84366 0,0 4.65484,-3.3349403 6.67742,-2.67986 1.32581,3.44412 0.50323,6.0942 0.25161,6.73935 1.54839,1.7568 2.49678,3.1265 2.49678,5.84606 0,9.57802 -5.7,10.34228 -11.10968,10.96758 0.89032,0.7841 1.64516,2.27292 1.64516,4.60539 0,3.34486 -0.029,7.48375 -0.029,8.29763 0,0.64516 0.44516,1.42926 1.67419,1.20098 C 41.43871,44.644471 48,35.225261 48,24.217991 48,10.451451 37.1129,7.2920821e-7 23.69032,7.2920821e-7 Z M 9.406452,34.232721 c -0.125807,0.0993 -0.09677,0.32754 0.06774,0.51612 0.154838,0.15881 0.377419,0.22829 0.503225,0.0993 0.125807,-0.0993 0.09678,-0.32753 -0.06774,-0.51612 -0.154838,-0.1588 -0.377419,-0.22828 -0.503225,-0.0993 z M 8.36129,33.428771 c -0.06774,0.12903 0.02903,0.28783 0.222581,0.38709 0.154839,0.0993 0.348387,0.0695 0.416129,-0.0695 0.06774,-0.12903 -0.02903,-0.28784 -0.222581,-0.38709 -0.193548,-0.0595 -0.348387,-0.0298 -0.416129,0.0695 z m 3.135484,3.53344 c -0.154839,0.12903 -0.09677,0.42679 0.125807,0.61538 0.22258,0.22828 0.503225,0.25806 0.629032,0.0993 0.125806,-0.12903 0.06774,-0.4268 -0.125807,-0.61538 -0.212903,-0.22828 -0.503225,-0.25806 -0.629032,-0.0993 z m -1.103226,-1.45903 c -0.154838,0.0993 -0.154838,0.35731 0,0.58559 0.154839,0.22829 0.416129,0.32754 0.541936,0.22829 0.154839,-0.12903 0.154839,-0.38709 0,-0.61538 -0.135484,-0.22828 -0.387097,-0.32753 -0.541936,-0.1985 z"
     id="path1"
     style="fill:#ffffff;fill-opacity:1;stroke-width:0.0980064" />
</svg>
