<?xml version="1.0" encoding="UTF-8" standalone="no"?>
<svg
   viewBox="0 0 48 48"
   version="1.1"
   id="svg1"
   sodipodi:docname="insta.svg"
   width="48"
   height="48"
   inkscape:version="1.3 (0e150ed6c4, 2023-07-21)"
   xmlns:inkscape="http://www.inkscape.org/namespaces/inkscape"
   xmlns:sodipodi="http://sodipodi.sourceforge.net/DTD/sodipodi-0.dtd"
   xmlns="http://www.w3.org/2000/svg"
   xmlns:svg="http://www.w3.org/2000/svg">
  <defs
     id="defs1" />
  <sodipodi:namedview
     id="namedview1"
     pagecolor="#505050"
     bordercolor="#eeeeee"
     borderopacity="1"
     inkscape:showpageshadow="0"
     inkscape:pageopacity="0"
     inkscape:pagecheckerboard="0"
     inkscape:deskcolor="#505050"
     inkscape:zoom="9.6578271"
     inkscape:cx="14.288928"
     inkscape:cy="23.556023"
     inkscape:window-width="1920"
     inkscape:window-height="1009"
     inkscape:window-x="-8"
     inkscape:window-y="-8"
     inkscape:window-maximized="1"
     inkscape:current-layer="svg1" />
  <!--!Font Awesome Free 6.5.2 by @fontawesome - https://fontawesome.com License - https://fontawesome.com/license/free Copyright 2024 Fonticons, Inc.-->
  <path
     id="path2"
     style="fill:#ffffff;stroke-width:0.32504;fill-opacity:1"
     d="M 23.78125 0.001953125 A 24 24 0 0 0 0 24.146484 A 24 24 0 0 0 24.072266 48 A 24 24 0 0 0 48 24 L 47.998047 23.707031 A 24 24 0 0 0 23.78125 0.001953125 z M 24 6.5039062 C 26.887058 6.5039062 29.774246 6.5449475 31.21875 6.6269531 C 34.021875 6.7675313 36.505047 7.4069424 38.550781 9.453125 C 40.604316 11.499315 41.244216 13.983359 41.376953 16.787109 C 41.540928 19.67676 41.540928 28.331051 41.376953 31.220703 C 41.236406 34.024454 40.596507 36.508498 38.550781 38.554688 C 36.505047 40.60868 34.021875 41.248086 31.21875 41.380859 C 28.329743 41.544863 19.670256 41.544863 16.78125 41.380859 C 13.978124 41.240282 11.502762 40.60087 9.4492188 38.554688 C 7.3956833 36.508498 6.7557842 34.024454 6.6230469 31.220703 C 6.4590721 28.331051 6.4590721 19.668948 6.6230469 16.779297 C 6.7635936 13.975554 7.3956833 11.491495 9.4492188 9.4453125 C 11.502762 7.3991226 13.985934 6.7597202 16.78125 6.6269531 C 18.225753 6.5449475 21.112942 6.5039062 24 6.5039062 z M 20.228516 9.6386719 C 17.803343 9.6572058 15.129078 9.7882789 13.689453 10.359375 C 12.151249 10.976351 10.972311 12.156764 10.363281 13.6875 C 9.4575337 15.983602 9.6601562 21.457886 9.6601562 24.003906 C 9.6601562 26.54992 9.4497243 32.0164 10.363281 34.320312 C 10.98012 35.85886 12.159058 37.039272 13.689453 37.648438 C 15.985043 38.554388 21.458461 38.351562 24.003906 38.351562 C 26.549359 38.351562 32.014961 38.562199 34.318359 37.648438 C 35.856564 37.031461 37.035495 35.851049 37.644531 34.320312 C 38.558081 32.02421 38.347656 26.54992 38.347656 24.003906 C 38.347656 21.457886 38.558081 15.991413 37.644531 13.6875 C 37.027693 12.148952 35.848755 10.968546 34.318359 10.359375 C 32.02277 9.4534252 26.549359 9.65625 24.003906 9.65625 C 23.049364 9.65625 21.683619 9.6275515 20.228516 9.6386719 z M 33.341797 12.570312 C 34.497401 12.570312 35.435547 13.508201 35.435547 14.664062 C 35.435547 15.827736 34.497401 16.755859 33.341797 16.755859 C 32.178384 16.755859 31.25 15.819925 31.25 14.664062 C 31.25 13.508201 32.186193 12.570313 33.341797 12.570312 z M 24.003906 15.03125 C 28.969883 15.03125 32.974609 19.036821 32.974609 24.003906 C 32.974609 28.970984 28.969883 32.976562 24.003906 32.976562 C 19.037936 32.976562 15.033203 28.970984 15.033203 24.003906 C 15.033203 19.036821 19.037936 15.03125 24.003906 15.03125 z M 24.003906 18.169922 C 20.786957 18.169922 18.171875 20.786232 18.171875 24.003906 C 18.171875 27.221573 20.794766 29.837891 24.003906 29.837891 C 27.213053 29.837891 29.835938 27.221573 29.835938 24.003906 C 29.835937 20.786232 27.220862 18.169922 24.003906 18.169922 z " />
</svg>
